<svg width="48" height="48" viewBox="0 0 48 48" fill="none" xmlns="http://www.w3.org/2000/svg">
<path d="M17.0122 36.8712C16.3888 37.4167 16.3256 38.3643 16.8712 38.9878C17.4167 39.6112 18.3643 39.6744 18.9878 39.1288L17.0122 36.8712ZM34 23.9994L34.9878 25.1282C35.3133 24.8434 35.5 24.4319 35.5 23.9994C35.5 23.5669 35.3133 23.1554 34.9878 22.8705L34 23.9994ZM18.9892 8.87116C18.3657 8.32562 17.4181 8.38877 16.8725 9.01222C16.327 9.63566 16.3902 10.5833 17.0136 11.1288L18.9892 8.87116ZM18.9878 39.1288L34.9878 25.1282L33.0122 22.8705L17.0122 36.8712L18.9878 39.1288ZM34.9878 22.8705L18.9892 8.87116L17.0136 11.1288L33.0122 25.1282L34.9878 22.8705Z" fill="#0C0C3D"/>
</svg>
