<svg width="48" height="48" viewBox="0 0 48 48" fill="none" xmlns="http://www.w3.org/2000/svg">
<path d="M26.0397 37.8477C25.4033 38.378 25.3173 39.3239 25.8477 39.9603C26.378 40.5967 27.3239 40.6827 27.9603 40.1523L26.0397 37.8477ZM45 23.9994L45.9603 25.1517C46.3023 24.8667 46.5 24.4445 46.5 23.9994C46.5 23.5542 46.3023 23.132 45.9603 22.847L45 23.9994ZM27.9619 7.84769C27.3255 7.31733 26.3796 7.4033 25.8492 8.0397C25.3189 8.6761 25.4049 9.62195 26.0413 10.1523L27.9619 7.84769ZM27.9603 40.1523L45.9603 25.1517L44.0397 22.847L26.0397 37.8477L27.9603 40.1523ZM45.9603 22.847L27.9619 7.84769L26.0413 10.1523L44.0397 25.1517L45.9603 22.847Z" fill="#0C0C3D"/>
<path d="M45 24H3" stroke="#0C0C3D" stroke-width="3" stroke-linecap="round"/>
</svg>
