<svg width="48" height="48" viewBox="0 0 48 48" fill="none" xmlns="http://www.w3.org/2000/svg">
<path d="M31.5 29C30.6716 29 30 29.6716 30 30.5C30 31.3284 30.6716 32 31.5 32H36.5C37.3284 32 38 31.3284 38 30.5C38 29.6716 37.3284 29 36.5 29H31.5ZM9.5 10C6.46243 10 4 12.4624 4 15.5V32.5C4 35.5376 6.46243 38 9.5 38H38.5C41.5376 38 44 35.5376 44 32.5V15.5C44 12.4624 41.5376 10 38.5 10H9.5ZM7 32.5V22H41V32.5C41 33.8807 39.8807 35 38.5 35H9.5C8.11929 35 7 33.8807 7 32.5ZM7 19V15.5C7 14.1193 8.11929 13 9.5 13H38.5C39.8807 13 41 14.1193 41 15.5V19H7Z" fill="#0C0C3D"/>
</svg>
