<svg width="48" height="48" viewBox="0 0 48 48" fill="none" xmlns="http://www.w3.org/2000/svg">
<path d="M16.7778 4H31.2222C32.066 4 32.7633 4.6307 32.8737 5.44898L32.8889 5.67647V12.9412H36.7778C40.7665 12.9412 44 16.1937 44 20.2059V34.7353C44 38.7475 40.7665 42 36.7778 42H11.2222C7.2335 42 4 38.7475 4 34.7353V20.2059C4 16.1937 7.2335 12.9412 11.2222 12.9412H15.1111V5.67647C15.1111 4.82774 15.7381 4.12631 16.5516 4.0153L16.7778 4H31.2222H16.7778ZM36.7778 16.2941H11.2222C9.07445 16.2941 7.33333 18.0455 7.33333 20.2059V34.7353C7.33333 36.8957 9.07445 38.6471 11.2222 38.6471H36.7778C38.9256 38.6471 40.6667 36.8957 40.6667 34.7353V20.2059C40.6667 18.0455 38.9256 16.2941 36.7778 16.2941ZM29.5556 7.35294H18.4444V12.9412H29.5556V7.35294Z" fill="#0C0C3D"/>
</svg>
