<svg width="48" height="48" viewBox="0 0 48 48" fill="none" xmlns="http://www.w3.org/2000/svg">
<path d="M21.8911 4.09424L21.901 4.10886C22.5909 4.03689 23.2913 4 24.0002 4C35.0459 4 44.0002 12.9543 44.0002 24C44.0002 35.0457 35.0459 44 24.0002 44C17.5817 44 11.8693 40.9764 8.20977 36.2759L8.20463 36.2747L8.20559 36.2705C5.56993 32.8828 4.00024 28.6247 4.00024 24C4.00024 13.6761 11.8226 5.17914 21.8637 4.11278L21.8911 4.09424ZM24.0002 7C23.8938 7 23.7875 7.00098 23.6815 7.00293C23.9267 7.49131 24.19 8.06861 24.429 8.70358C25.1228 10.547 25.7606 13.2658 24.6289 15.6757C23.5837 17.9014 21.7794 18.4772 20.4486 18.821L20.2793 18.8647C18.9666 19.2031 18.4619 19.3332 18.0937 19.8922C17.7557 20.4053 17.8069 21.0569 18.2164 22.3914C18.2452 22.4852 18.2764 22.5844 18.3088 22.6879C18.471 23.2046 18.6666 23.8276 18.7685 24.4135C18.8953 25.1423 18.9311 26.0688 18.4644 26.9644C18.0014 27.8528 17.3877 28.4584 16.6626 28.8535C15.9816 29.2245 15.2761 29.3652 14.7483 29.4588L14.5624 29.4916C13.5327 29.6729 13.0401 29.7596 12.5603 30.2735C12.1879 30.6724 11.9476 31.3771 11.8072 32.4298C11.7501 32.8583 11.7157 33.2831 11.6802 33.7222L11.6611 33.9565C11.6212 34.4411 11.5716 34.9988 11.4627 35.4777L11.4621 35.4803C14.57 38.8728 19.0367 41 24.0002 41C27.1543 41 30.1077 40.1411 32.6393 38.6444C32.4427 38.4441 32.2291 38.2088 32.0185 37.9436C31.3395 37.0888 30.4489 35.6161 30.7578 33.878C30.9063 33.0421 31.3543 32.3425 31.7872 31.8058C32.2283 31.259 32.7608 30.7538 33.2263 30.3253C33.337 30.2235 33.443 30.1267 33.5446 30.0338C33.9011 29.7084 34.2039 29.4319 34.4631 29.1603C34.8087 28.7983 34.8839 28.6351 34.8878 28.6265C35.0237 28.1772 34.8571 27.8588 34.6757 27.7184C34.5844 27.6479 34.4621 27.5969 34.296 27.5955C34.1284 27.5942 33.8567 27.6445 33.4938 27.8743C33.0744 28.14 32.4643 28.304 31.8223 28.0455C31.2875 27.8302 30.9913 27.4181 30.849 27.1828C30.5612 26.707 30.3995 26.0904 30.2942 25.6382C30.213 25.2895 30.1355 24.8935 30.0648 24.5321C30.0365 24.3875 30.0092 24.2485 29.9833 24.1202C29.8823 23.6205 29.797 23.2636 29.7151 23.0419C29.7139 23.039 29.7038 23.0145 29.6767 22.9649C29.6472 22.9111 29.6055 22.8419 29.5486 22.7553C29.4326 22.5788 29.2811 22.3714 29.0932 22.1225C29.025 22.0321 28.9517 21.936 28.8748 21.8352C28.5526 21.4128 28.1687 20.9095 27.8422 20.4119C27.4506 19.8152 27.008 19.0354 26.8681 18.2037C26.7939 17.7629 26.7951 17.2539 26.978 16.7368C27.1653 16.2073 27.5072 15.7718 27.9511 15.4388C28.9179 14.7137 30.3382 13.0937 31.5978 11.5207C32.173 10.8025 32.687 10.1295 33.0697 9.61876C30.445 7.96003 27.3347 7 24.0002 7ZM35.455 11.4384C35.0599 11.9653 34.5318 12.6563 33.9395 13.3959C32.736 14.8987 31.1408 16.7656 29.8404 17.7708C29.8912 17.9685 30.041 18.2945 30.3503 18.766C30.6126 19.1656 30.9123 19.5589 31.2285 19.9739C31.3136 20.0856 31.4006 20.1997 31.4877 20.3152C31.8325 20.772 32.3103 21.4094 32.5294 22.0028C32.7018 22.4698 32.8256 23.04 32.9238 23.5257C32.9584 23.697 32.9905 23.8607 33.0213 24.0184C33.0723 24.2792 33.12 24.5233 33.1709 24.7572C34.3743 24.4138 35.5745 24.6212 36.5108 25.3452C37.7281 26.2865 38.2362 27.9178 37.7596 29.4943C37.5409 30.2177 37.0317 30.8143 36.6332 31.2317C36.2953 31.5858 35.8901 31.9553 35.5227 32.2904C35.4318 32.3733 35.3426 32.4547 35.258 32.5326C34.7981 32.9559 34.4112 33.3311 34.1222 33.6894C33.825 34.0578 33.7319 34.288 33.7115 34.4029C33.6338 34.8399 33.8466 35.4218 34.3676 36.0777C34.6039 36.3751 34.8554 36.6256 35.0506 36.8029C35.0737 36.8238 35.0958 36.8436 35.1167 36.8621C38.7203 33.7448 41.0002 29.1387 41.0002 24C41.0002 19.024 38.8623 14.5473 35.455 11.4384ZM7.00024 24C7.00024 26.7967 7.67559 29.4357 8.87208 31.7628C9.04186 30.6479 9.39614 29.2668 10.3673 28.2264C11.567 26.9412 13.0385 26.7003 13.9636 26.5488C14.0561 26.5336 14.1438 26.5192 14.2245 26.5049C14.7199 26.4171 15.0064 26.3395 15.2274 26.2191C15.4044 26.1226 15.603 25.9636 15.804 25.578C15.8337 25.5209 15.8886 25.3629 15.8129 24.9277C15.7481 24.5549 15.6265 24.1652 15.4674 23.6551C15.4299 23.5348 15.3899 23.4065 15.3484 23.2715C14.9781 22.0648 14.3863 20.0669 15.5883 18.242C16.6316 16.6581 18.3096 16.2532 19.3749 15.9961C19.4904 15.9682 19.5986 15.9421 19.6981 15.9164C20.824 15.6255 21.4647 15.3559 21.9134 14.4005C22.5041 13.1425 22.25 11.4306 21.6213 9.76039C21.3232 8.96841 20.9734 8.2725 20.6964 7.77305C20.6095 7.61627 20.5305 7.48029 20.4637 7.36837C12.7722 8.99585 7.00024 15.8239 7.00024 24Z" fill="#0C0C3D"/>
</svg>
