<svg width="48" height="48" viewBox="0 0 48 48" fill="none" xmlns="http://www.w3.org/2000/svg">
<path d="M11.9792 9.97738C18.6181 3.34087 29.3819 3.34087 36.0208 9.97738C42.6597 16.6139 42.6597 27.3738 36.0208 34.0103L33.7034 36.3014C31.9953 37.9772 29.7791 40.1317 27.0539 42.7657C25.3509 44.4116 22.6491 44.4114 20.9464 42.7652L14.1305 36.1376C13.2738 35.2967 12.5568 34.5877 11.9792 34.0103C5.34027 27.3738 5.34027 16.6139 11.9792 9.97738ZM33.95 12.0474C28.4548 6.55421 19.5452 6.55421 14.05 12.0474C8.55477 17.5407 8.55477 26.447 14.05 31.9402L16.9533 34.8042C18.5522 36.3684 20.5621 38.3209 22.9824 40.6609C23.55 41.2096 24.4506 41.2097 25.0182 40.661L31.6463 34.2176C32.5619 33.3193 33.3299 32.5601 33.95 31.9402C39.4452 26.447 39.4452 17.5407 33.95 12.0474ZM24 16.6729C27.2365 16.6729 29.8602 19.2957 29.8602 22.531C29.8602 25.7663 27.2365 28.389 24 28.389C20.7635 28.389 18.1398 25.7663 18.1398 22.531C18.1398 19.2957 20.7635 16.6729 24 16.6729ZM24 19.6004C22.3809 19.6004 21.0684 20.9125 21.0684 22.531C21.0684 24.1495 22.3809 25.4615 24 25.4615C25.6191 25.4615 26.9316 24.1495 26.9316 22.531C26.9316 20.9125 25.6191 19.6004 24 19.6004Z" fill="#0C0C3D"/>
</svg>
