<svg width="48" height="48" viewBox="0 0 48 48" fill="none" xmlns="http://www.w3.org/2000/svg">
<g clip-path="url(#clip0_128_1208)">
<path d="M32.4849 5.86377L42.1364 15.5153C44.791 18.1698 44.0648 22.6449 40.707 24.3237L30.9653 29.1946C30.6145 29.37 30.3464 29.6758 30.2183 30.0465L27.3398 38.379C26.7369 40.1244 24.5148 40.6362 23.2091 39.3305L17 33.1215L8.12149 42.0002H6L6.00017 39.8789L14.8787 31.0002L8.66975 24.7912C7.364 23.4854 7.87583 21.2634 9.62122 20.6604L17.9538 17.7819C18.3245 17.6539 18.6302 17.3857 18.8056 17.035L23.6765 7.2932C25.3553 3.93545 29.8304 3.20924 32.4849 5.86377ZM40.0151 17.6366L30.3636 7.98509C29.157 6.77849 27.1229 7.10858 26.3597 8.63483L21.4889 18.3766C20.9628 19.4289 20.0454 20.2333 18.9333 20.6175L11.3562 23.235L24.7652 36.644L27.3828 29.0669C27.7669 27.9549 28.5713 27.0375 29.6237 26.5113L39.3654 21.6405C40.8916 20.8773 41.2217 18.8432 40.0151 17.6366Z" fill="#0C0C3D"/>
</g>
<defs>
<clipPath id="clip0_128_1208">
<rect width="48" height="48" fill="white"/>
</clipPath>
</defs>
</svg>
