<svg width="48" height="48" viewBox="0 0 48 48" fill="none" xmlns="http://www.w3.org/2000/svg">
<path d="M11.1288 15.0122C10.5833 14.3888 9.63566 14.3256 9.01222 14.8712C8.38878 15.4167 8.32562 16.3643 8.87116 16.9878L11.1288 15.0122ZM24.0006 32L22.8718 32.9878C23.1566 33.3133 23.5681 33.5 24.0006 33.5C24.4331 33.5 24.8446 33.3133 25.1295 32.9878L24.0006 32ZM39.1288 16.9892C39.6744 16.3657 39.6112 15.4181 38.9878 14.8725C38.3643 14.327 37.4167 14.3902 36.8712 15.0136L39.1288 16.9892ZM8.87116 16.9878L22.8718 32.9878L25.1295 31.0122L11.1288 15.0122L8.87116 16.9878ZM25.1295 32.9878L39.1288 16.9892L36.8712 15.0136L22.8718 31.0122L25.1295 32.9878Z" fill="#0C0C3D"/>
</svg>
