<svg width="48" height="48" viewBox="0 0 48 48" fill="none" xmlns="http://www.w3.org/2000/svg">
<path d="M36.8712 32.9878C37.4167 33.6112 38.3643 33.6744 38.9878 33.1288C39.6112 32.5833 39.6744 31.6357 39.1288 31.0122L36.8712 32.9878ZM23.9994 16L25.1282 15.0122C24.8434 14.6867 24.4319 14.5 23.9994 14.5C23.5669 14.5 23.1554 14.6867 22.8705 15.0122L23.9994 16ZM8.87116 31.0108C8.32562 31.6343 8.38877 32.5819 9.01222 33.1275C9.63566 33.673 10.5833 33.6098 11.1288 32.9864L8.87116 31.0108ZM39.1288 31.0122L25.1282 15.0122L22.8705 16.9878L36.8712 32.9878L39.1288 31.0122ZM22.8705 15.0122L8.87116 31.0108L11.1288 32.9864L25.1282 16.9878L22.8705 15.0122Z" fill="#0C0C3D"/>
</svg>
