<svg width="48" height="48" viewBox="0 0 48 48" fill="none" xmlns="http://www.w3.org/2000/svg">
<path d="M37 40C37 40.55 36.552 41 36 41H12C11.448 41 11 40.55 11 40V8C11 7.45 11.448 7 12 7H24V16C24 18.208 25.792 20 28 20H37V40ZM27 9.242L34.756 17H28C27.448 17 27 16.55 27 16V9.242ZM38.828 16.828L27.17 5.172C27.118 5.12 27.054 5.08 27 5.032C26.858 4.904 26.718 4.778 26.562 4.672C26.482 4.618 26.39 4.582 26.306 4.536C26.164 4.456 26.024 4.368 25.874 4.304C25.48 4.14 25.056 4.058 24.626 4.028C24.532 4.022 24.44 4 24.344 4H24.342H24H12C9.792 4 8 5.792 8 8V40C8 42.208 9.792 44 12 44H36C38.208 44 40 42.208 40 40V20V19.656C40 18.596 39.578 17.578 38.828 16.828Z" fill="#0C0C3D"/>
</svg>
