<svg width="48" height="48" viewBox="0 0 48 48" fill="none" xmlns="http://www.w3.org/2000/svg">
<path d="M24 4C35.0457 4 44 12.9543 44 24C44 35.0457 35.0457 44 24 44C20.7634 44 17.6356 43.2291 14.8257 41.776L7.17408 43.9107C5.84425 44.282 4.46516 43.505 4.09381 42.1752C3.97093 41.7351 3.97099 41.2698 4.0939 40.8301L6.22922 33.1845C4.77273 30.372 4 27.2405 4 24C4 12.9543 12.9543 4 24 4ZM24 7C14.6112 7 7 14.6112 7 24C7 26.9392 7.74555 29.7668 9.14607 32.2749L9.44735 32.8145L7.22192 40.7828L15.1951 38.5584L15.7342 38.859C18.2401 40.2563 21.0644 41 24 41C33.3888 41 41 33.3888 41 24C41 14.6112 33.3888 7 24 7ZM24 31C25.1046 31 26 31.8954 26 33C26 34.1046 25.1046 35 24 35C22.8954 35 22 34.1046 22 33C22 31.8954 22.8954 31 24 31ZM24 13.5C27.0376 13.5 29.5 15.9624 29.5 19C29.5 21.0215 28.9049 22.1481 27.3977 23.7172L27.0607 24.0607C25.8169 25.3045 25.5 25.8326 25.5 27C25.5 27.8284 24.8284 28.5 24 28.5C23.1716 28.5 22.5 27.8284 22.5 27C22.5 24.9785 23.0951 23.8519 24.6023 22.2828L24.9393 21.9393C26.1831 20.6955 26.5 20.1674 26.5 19C26.5 17.6193 25.3807 16.5 24 16.5C22.7056 16.5 21.6409 17.4837 21.5129 18.7444L21.5 19C21.5 19.8284 20.8284 20.5 20 20.5C19.1716 20.5 18.5 19.8284 18.5 19C18.5 15.9624 20.9624 13.5 24 13.5Z" fill="#0C0C3D"/>
</svg>
