<svg width="48" height="48" viewBox="0 0 48 48" fill="none" xmlns="http://www.w3.org/2000/svg">
<path d="M6.28487 29.4959L5.19277 30.4786L6.28487 29.4959C5.61077 28.7468 5.37234 27.7021 5.65462 26.7346L5.96955 25.6553C6.28497 24.5743 6.28497 23.4257 5.96955 22.3447L5.65462 21.2654C5.37234 20.2979 5.61077 19.2532 6.28487 18.5041L7.0369 17.6683C7.79013 16.8312 8.2885 15.7963 8.47335 14.6855L8.65791 13.5764C8.82334 12.5823 9.49142 11.7445 10.4238 11.362L11.464 10.9353C12.5058 10.5079 13.4039 9.79175 14.0524 8.87114L14.6999 7.95198L13.4736 7.08814L14.6999 7.95198C15.2803 7.12808 16.2457 6.66317 17.2517 6.7231L18.374 6.78996C19.4981 6.85692 20.618 6.60133 21.6017 6.05327L22.5839 5.50607C23.4642 5.01557 24.5358 5.01557 25.4161 5.50607L26.3983 6.05327C27.382 6.60133 28.5019 6.85692 29.626 6.78996L30.7483 6.7231C31.7543 6.66317 32.7197 7.12808 33.3001 7.95198L33.9476 8.87114C34.5961 9.79176 35.4942 10.5079 36.536 10.9353L37.5762 11.362C38.5086 11.7445 39.1767 12.5823 39.3421 13.5764L39.5266 14.6855C39.7115 15.7963 40.2099 16.8312 40.9631 17.6683L41.7151 18.5041C42.3892 19.2532 42.6277 20.2979 42.3454 21.2654L42.0305 22.3447C41.715 23.4257 41.715 24.5743 42.0305 25.6553L42.3454 26.7346C42.6277 27.7021 42.3892 28.7468 41.7151 29.4959L40.9631 30.3317C40.2099 31.1688 39.7115 32.2037 39.5266 33.3145L39.3421 34.4236C39.1767 35.4177 38.5086 36.2555 37.5762 36.638L36.536 37.0647C35.4942 37.4921 34.5961 38.2082 33.9476 39.1289L33.3001 40.048C32.7197 40.8719 31.7543 41.3368 30.7483 41.2769L29.626 41.21C28.5019 41.1431 27.382 41.3987 26.3983 41.9467L27.1284 43.2571L26.3983 41.9467L25.4161 42.4939C24.5358 42.9844 23.4642 42.9844 22.5839 42.4939L21.6017 41.9467C20.618 41.3987 19.4981 41.1431 18.374 41.21L17.2517 41.2769C16.2457 41.3368 15.2803 40.8719 14.6999 40.048L14.0524 39.1289C13.4039 38.2082 12.5058 37.4921 11.464 37.0647L10.4238 36.638C9.49142 36.2555 8.82334 35.4177 8.65791 34.4236L8.47335 33.3145C8.2885 32.2037 7.79013 31.1688 7.0369 30.3317L6.28487 29.4959Z" stroke="#0C0C3D" stroke-width="3"/>
<path d="M31 18L18.2721 30.7279" stroke="#0C0C3D" stroke-width="2.5" stroke-linecap="round"/>
<circle cx="19.5" cy="19.5" r="2.5" stroke="#0C0C3D" stroke-width="2"/>
<circle cx="29.5" cy="29.5" r="2.5" stroke="#0C0C3D" stroke-width="2"/>
</svg>
