<svg width="48" height="48" viewBox="0 0 48 48" fill="none" xmlns="http://www.w3.org/2000/svg">
<path d="M20 5.5C28.0081 5.5 34.5 11.9919 34.5 20C34.5 23.4637 33.2855 26.6438 31.2591 29.1376L41.0607 38.9393C41.6464 39.5251 41.6464 40.4749 41.0607 41.0607C40.5281 41.5932 39.6948 41.6416 39.1076 41.2059L38.9393 41.0607L29.1376 31.2591C26.6438 33.2855 23.4637 34.5 20 34.5C11.9919 34.5 5.5 28.0081 5.5 20C5.5 11.9919 11.9919 5.5 20 5.5ZM20 8.5C13.6487 8.5 8.5 13.6487 8.5 20C8.5 26.3513 13.6487 31.5 20 31.5C26.3513 31.5 31.5 26.3513 31.5 20C31.5 13.6487 26.3513 8.5 20 8.5Z" fill="#212121"/>
</svg>
