<svg width="48" height="48" viewBox="0 0 48 48" fill="none" xmlns="http://www.w3.org/2000/svg">
<path d="M35.5083 27.9999C37.9924 27.9999 40.0061 30.0136 40.0061 32.4976V33.6485C40.0061 35.437 39.3669 37.1667 38.2039 38.5255C35.0651 42.1924 30.2908 44.0022 24 44.0022C17.7083 44.0022 12.9362 42.1918 9.80364 38.5234C8.64412 37.1655 8.00708 35.4385 8.00708 33.653V32.4976C8.00708 30.0136 10.0208 27.9999 12.5048 27.9999H35.5083ZM35.5083 30.9999H12.5048C11.6776 30.9999 11.0071 31.6704 11.0071 32.4976V33.653C11.0071 34.7243 11.3893 35.7605 12.085 36.5752C14.5916 39.5106 18.5234 41.0022 24 41.0022C29.4766 41.0022 33.4118 39.5105 35.9248 36.5747C36.6226 35.7594 37.0061 34.7216 37.0061 33.6484V32.4976C37.0061 31.6704 36.3355 30.9999 35.5083 30.9999ZM24 4.00928C29.5228 4.00928 34 8.48643 34 14.0093C34 19.5321 29.5228 24.0093 24 24.0093C18.4771 24.0093 14 19.5321 14 14.0093C14 8.48643 18.4771 4.00928 24 4.00928ZM24 7.00928C20.134 7.00928 17 10.1433 17 14.0093C17 17.8753 20.134 21.0093 24 21.0093C27.866 21.0093 31 17.8753 31 14.0093C31 10.1433 27.866 7.00928 24 7.00928Z" fill="#0C0C3D"/>
</svg>
