<svg width="24" height="24" viewBox="0 0 24 24" fill="none" xmlns="http://www.w3.org/2000/svg">
<path d="M18.5485 16.3951C18.7667 16.6445 19.1457 16.6698 19.3951 16.4515C19.6445 16.2333 19.6698 15.8543 19.4515 15.6049L18.5485 16.3951ZM11.9997 8L12.4512 7.60489C12.3373 7.47468 12.1727 7.4 11.9997 7.4C11.8267 7.4 11.6621 7.47468 11.5482 7.60489L11.9997 8ZM4.54846 15.6042C4.33025 15.8536 4.35551 16.2326 4.60489 16.4508C4.85427 16.6691 5.23332 16.6438 5.45154 16.3944L4.54846 15.6042ZM19.4515 15.6049L12.4512 7.60489L11.5482 8.39511L18.5485 16.3951L19.4515 15.6049ZM11.5482 7.60489L4.54846 15.6042L5.45154 16.3944L12.4512 8.39511L11.5482 7.60489Z" fill="#0C0C3D"/>
</svg>
