<svg width="24" height="24" viewBox="0 0 24 24" fill="none" xmlns="http://www.w3.org/2000/svg">
<path d="M15.3951 5.45154C15.6445 5.23332 15.6698 4.85426 15.4515 4.60489C15.2333 4.35551 14.8543 4.33025 14.6049 4.54846L15.3951 5.45154ZM7 12.0003L6.60489 11.5488C6.47468 11.6627 6.4 11.8273 6.4 12.0003C6.4 12.1733 6.47468 12.3379 6.60489 12.4518L7 12.0003ZM14.6042 19.4515C14.8536 19.6698 15.2326 19.6445 15.4508 19.3951C15.6691 19.1457 15.6438 18.7667 15.3944 18.5485L14.6042 19.4515ZM14.6049 4.54846L6.60489 11.5488L7.39511 12.4518L15.3951 5.45154L14.6049 4.54846ZM6.60489 12.4518L14.6042 19.4515L15.3944 18.5485L7.39511 11.5488L6.60489 12.4518Z" fill="#0C0C3D"/>
</svg>
