<svg width="24" height="24" viewBox="0 0 24 24" fill="none" xmlns="http://www.w3.org/2000/svg">
<path d="M8.60489 18.5485C8.35551 18.7667 8.33025 19.1457 8.54846 19.3951C8.76668 19.6445 9.14574 19.6698 9.39511 19.4515L8.60489 18.5485ZM17 11.9997L17.3951 12.4512C17.5253 12.3373 17.6 12.1727 17.6 11.9997C17.6 11.8267 17.5253 11.6621 17.3951 11.5482L17 11.9997ZM9.39581 4.54846C9.14643 4.33025 8.76737 4.35551 8.54916 4.60489C8.33094 4.85427 8.3562 5.23332 8.60558 5.45154L9.39581 4.54846ZM9.39511 19.4515L17.3951 12.4512L16.6049 11.5482L8.60489 18.5485L9.39511 19.4515ZM17.3951 11.5482L9.39581 4.54846L8.60558 5.45154L16.6049 12.4512L17.3951 11.5482Z" fill="#0C0C3D"/>
</svg>
