<svg width="24" height="24" viewBox="0 0 24 24" fill="none" xmlns="http://www.w3.org/2000/svg">
<path d="M12 3C16.9706 3 21 7.02944 21 12C21 16.9706 16.9706 21 12 21C7.02944 21 3 16.9706 3 12C3 7.02944 7.02944 3 12 3ZM12 4.125C7.65076 4.125 4.125 7.65076 4.125 12C4.125 16.3492 7.65076 19.875 12 19.875C16.3492 19.875 19.875 16.3492 19.875 12C19.875 7.65076 16.3492 4.125 12 4.125ZM15.7782 9.35225C15.9735 9.54751 15.9952 9.85062 15.8433 10.0698L15.7782 10.1477L11.2727 14.6532C11.0775 14.8485 10.7744 14.8702 10.5552 14.7183L10.4773 14.6532L8.22725 12.4032C8.00758 12.1836 8.00758 11.8274 8.22725 11.6077C8.42251 11.4125 8.72562 11.3908 8.94484 11.5426L9.02275 11.6077L10.875 13.4603L14.9827 9.35225C15.2024 9.13258 15.5586 9.13258 15.7782 9.35225Z" fill="#0C0C3D"/>
</svg>
