<svg width="24" height="24" viewBox="0 0 24 24" fill="none" xmlns="http://www.w3.org/2000/svg">
<path d="M12 3C16.9706 3 21 7.02944 21 12C21 16.9706 16.9706 21 12 21C7.02944 21 3 16.9706 3 12C3 7.02944 7.02944 3 12 3ZM12 4.125C7.65076 4.125 4.125 7.65076 4.125 12C4.125 16.3492 7.65076 19.875 12 19.875C16.3492 19.875 19.875 16.3492 19.875 12C19.875 7.65076 16.3492 4.125 12 4.125ZM9.53561 8.75293L9.61351 8.81802L12 11.2045L14.3865 8.81802C14.5817 8.62276 14.8848 8.60106 15.1041 8.75293L15.182 8.81802C15.3772 9.01328 15.3989 9.31638 15.2471 9.53561L15.182 9.61351L12.7955 12L15.182 14.3865C15.3772 14.5817 15.3989 14.8848 15.2471 15.1041L15.182 15.182C14.9867 15.3772 14.6836 15.3989 14.4644 15.2471L14.3865 15.182L12 12.7955L9.61351 15.182C9.41825 15.3772 9.11515 15.3989 8.89592 15.2471L8.81802 15.182C8.62276 14.9867 8.60106 14.6836 8.75293 14.4644L8.81802 14.3865L11.2045 12L8.81802 9.61351C8.62276 9.41825 8.60106 9.11515 8.75293 8.89592L8.81802 8.81802C9.01328 8.62276 9.31638 8.60106 9.53561 8.75293Z" fill="#0C0C3D"/>
</svg>
