<svg width="60" height="32" viewBox="0 0 60 32" fill="none" xmlns="http://www.w3.org/2000/svg">
<path d="M15.9966 6.40002C17.7239 6.40002 19.1959 7.61236 19.5294 9.28255C19.5942 9.60751 19.3834 9.92353 19.0584 9.98841C18.7335 10.0533 18.4175 9.84246 18.3526 9.5175C18.1309 8.40736 17.1507 7.60002 15.9966 7.60002C14.73 7.60002 13.6923 8.58012 13.6006 9.82328L13.594 10.0026L13.594 12.4H20.8C22.1255 12.4 23.2 13.4745 23.2 14.8V23.2C23.2 24.5255 22.1255 25.6 20.8 25.6H11.2C9.87452 25.6 8.8 24.5255 8.8 23.2V14.8C8.8 13.4745 9.87452 12.4 11.2 12.4H12.394L12.394 10.0026C12.394 8.01294 14.0069 6.40002 15.9966 6.40002ZM20.8 13.6H11.2C10.5373 13.6 10 14.1373 10 14.8V23.2C10 23.8628 10.5373 24.4 11.2 24.4H20.8C21.4627 24.4 22 23.8628 22 23.2V14.8C22 14.1373 21.4627 13.6 20.8 13.6ZM16 17.8C16.6627 17.8 17.2 18.3373 17.2 19C17.2 19.6628 16.6627 20.2 16 20.2C15.3373 20.2 14.8 19.6628 14.8 19C14.8 18.3373 15.3373 17.8 16 17.8Z" fill="#0C0C3D"/>
<path d="M44 6.40002C45.9882 6.40002 47.6 8.0118 47.6 10V11.2H48.8C50.1255 11.2 51.2 12.2745 51.2 13.6V22C51.2 23.3255 50.1255 24.4 48.8 24.4H39.2C37.8745 24.4 36.8 23.3255 36.8 22V13.6C36.8 12.2745 37.8745 11.2 39.2 11.2H40.4V10C40.4 8.0118 42.0118 6.40002 44 6.40002ZM48.8 12.4H39.2C38.5373 12.4 38 12.9373 38 13.6V22C38 22.6628 38.5373 23.2 39.2 23.2H48.8C49.4627 23.2 50 22.6628 50 22V13.6C50 12.9373 49.4627 12.4 48.8 12.4ZM44 16.6C44.6627 16.6 45.2 17.1373 45.2 17.8C45.2 18.4628 44.6627 19 44 19C43.3373 19 42.8 18.4628 42.8 17.8C42.8 17.1373 43.3373 16.6 44 16.6ZM44 7.60002C42.6745 7.60002 41.6 8.67454 41.6 10V11.2H46.4V10C46.4 8.67454 45.3255 7.60002 44 7.60002Z" fill="#0C0C3D"/>
<rect x="0.5" y="0.5" width="59" height="31" rx="4.5" stroke="#BFC7D7" stroke-dasharray="10 5"/>
</svg>
