<svg width="24" height="24" viewBox="0 0 24 24" fill="none" xmlns="http://www.w3.org/2000/svg">
<path d="M19.0338 13.8426C18.7904 15.179 18.169 16.4195 17.2181 17.4349C15.9119 18.8296 14.1406 19.6326 12.2304 19.6956C12.1507 19.6982 12.0715 19.6995 11.9922 19.6995C9.49969 19.6994 7.20357 18.4055 5.90683 16.309L8.07433 16.3891C8.42133 16.4821 8.77807 16.2763 8.87112 15.9294C8.96417 15.5826 8.7583 15.226 8.41129 15.1329L4.82741 14.6733C4.66078 14.6287 4.48316 14.652 4.33381 14.7382C4.18435 14.8243 4.07532 14.9664 4.03062 15.1329L3.02236 18.4608C2.92931 18.8076 3.13518 19.1641 3.48219 19.2572C3.53865 19.2723 3.59527 19.2796 3.65106 19.2796C3.93822 19.2796 4.20107 19.088 4.27898 18.7976L4.85551 17.0797C6.39715 19.5061 9.08061 21.0001 11.9919 21C12.0854 21 12.1795 20.9985 12.2733 20.9954C14.5309 20.9208 16.6243 19.972 18.168 18.3236C19.267 17.1501 19.9936 15.7221 20.2941 14.1824L19.0338 13.8426Z" fill="#0C0C3D"/>
<path d="M19.7114 6.43765C19.7868 6.08489 20.133 5.86007 20.4849 5.9358C20.8366 6.01147 21.0607 6.35869 20.9855 6.71139L20.172 9.99348C20.1358 10.1629 20.0339 10.3109 19.8889 10.405C19.7982 10.4639 19.6952 10.4986 19.5896 10.5076C19.5262 10.5129 19.4619 10.509 19.3986 10.4953L15.6708 9.69419C15.319 9.61862 15.0949 9.2713 15.1703 8.91854C15.2456 8.56578 15.5918 8.34101 15.9437 8.41663L18.1153 8.88337C16.8433 6.68634 14.4938 5.30651 11.918 5.30651C8.54651 5.30651 6.41339 7.41111 5.30213 10.4753L3.96426 10.1891C5.11777 6.62094 7.94235 4 11.918 4C14.95 4 17.7164 5.61809 19.2235 8.19661L19.7114 6.43765Z" fill="#0C0C3D"/>
</svg>
