<svg width="60" height="32" viewBox="0 0 60 32" fill="none" xmlns="http://www.w3.org/2000/svg">
<path d="M16 13.0046C18.2091 13.0046 20 14.7955 20 17.0046C20 19.2138 18.2091 21.0046 16 21.0046C13.7909 21.0046 12 19.2138 12 17.0046C12 14.7955 13.7909 13.0046 16 13.0046ZM16 14.5046C14.6193 14.5046 13.5 15.6239 13.5 17.0046C13.5 18.3853 14.6193 19.5046 16 19.5046C17.3807 19.5046 18.5 18.3853 18.5 17.0046C18.5 15.6239 17.3807 14.5046 16 14.5046ZM16 9.5C20.6135 9.5 24.5961 12.65 25.7011 17.0644C25.8017 17.4662 25.5575 17.8735 25.1557 17.9741C24.7539 18.0746 24.3466 17.8305 24.246 17.4286C23.3071 13.678 19.9214 11 16 11C12.0769 11 8.6901 13.6803 7.75286 17.4332C7.65249 17.835 7.24535 18.0794 6.84348 17.9791C6.44161 17.8787 6.19719 17.4716 6.29755 17.0697C7.40065 12.6527 11.3845 9.5 16 9.5Z" fill="#0C0C3D"/>
<path d="M34.2197 6.21967C33.9534 6.48594 33.9292 6.9026 34.1471 7.19621L34.2197 7.28033L38.2542 11.3149C36.3322 12.6644 34.8958 14.6799 34.2989 17.0644C34.1983 17.4662 34.4425 17.8735 34.8443 17.9741C35.2461 18.0746 35.6534 17.8305 35.754 17.4286C36.2835 15.3135 37.5911 13.5395 39.3342 12.3945L41.1438 14.2043C40.4363 14.9258 40 15.9143 40 17.0046C40 19.2138 41.7909 21.0046 44 21.0046C45.0904 21.0046 46.0788 20.5683 46.8004 19.8608L52.7197 25.7803C53.0126 26.0732 53.4874 26.0732 53.7803 25.7803C54.0466 25.5141 54.0708 25.0974 53.8529 24.8038L53.7803 24.7197L47.6668 18.6055L47.668 18.604L46.4679 17.4061L43.598 14.5368L43.6 14.536L40.7188 11.6578L40.72 11.656L39.5867 10.5255L35.2803 6.21967C34.9874 5.92678 34.5126 5.92678 34.2197 6.21967ZM42.2041 15.2655L45.7392 18.8006C45.2892 19.2364 44.6759 19.5046 44 19.5046C42.6193 19.5046 41.5 18.3853 41.5 17.0046C41.5 16.3287 41.7682 15.7154 42.2041 15.2655ZM44 9.5C42.9997 9.5 42.0291 9.64807 41.1111 9.925L42.3481 11.1612C42.8839 11.0553 43.4364 11 44 11C47.9231 11 51.3099 13.6803 52.2471 17.4332C52.3475 17.835 52.7546 18.0794 53.1565 17.9791C53.5584 17.8787 53.8028 17.4716 53.7024 17.0697C52.5994 12.6527 48.6155 9.5 44 9.5ZM44.1947 13.0093L47.996 16.81C47.8942 14.7531 46.2472 13.1076 44.1947 13.0093Z" fill="#0C0C3D"/>
<rect x="0.5" y="0.5" width="59" height="31" rx="4.5" stroke="#BFC7D7" stroke-dasharray="10 5"/>
</svg>
