<svg width="24" height="24" viewBox="0 0 24 24" fill="none" xmlns="http://www.w3.org/2000/svg">
<g clip-path="url(#clip0_22_95)">
<path d="M5.63603 5.63604C9.15074 2.12132 14.8492 2.12132 18.3639 5.63604C21.8787 9.15076 21.8787 14.8492 18.3639 18.364C14.8492 21.8787 9.15074 21.8787 5.63603 18.364C2.12131 14.8492 2.12131 9.15076 5.63603 5.63604ZM6.43152 6.43153C3.35614 9.50691 3.35614 14.4931 6.43152 17.5685C9.5069 20.6438 14.4931 20.6438 17.5685 17.5685C20.6438 14.4931 20.6438 9.50691 17.5685 6.43153C14.4931 3.35616 9.5069 3.35616 6.43152 6.43153ZM7.96138 11.4466L8.06249 11.4375L11.4375 11.4375V8.0625C11.4375 7.78636 11.6365 7.55669 11.8989 7.50906L12 7.5C12.2761 7.5 12.5058 7.69898 12.5534 7.96139L12.5625 8.0625L12.5625 11.4375H15.9375C16.2136 11.4375 16.4433 11.6365 16.4909 11.8989L16.5 12C16.5 12.2761 16.301 12.5058 16.0386 12.5534L15.9375 12.5625H12.5625L12.5625 15.9375C12.5625 16.2136 12.3635 16.4433 12.1011 16.4909L12 16.5C11.7238 16.5 11.4942 16.301 11.4465 16.0386L11.4375 15.9375V12.5625L8.06249 12.5625C7.78634 12.5625 7.55668 12.3635 7.50905 12.1011L7.49999 12C7.49999 11.7239 7.69897 11.4942 7.96138 11.4466Z" fill="#0C0C3D"/>
</g>
<defs>
<clipPath id="clip0_22_95">
<rect width="24" height="24" fill="white"/>
</clipPath>
</defs>
</svg>
