<svg width="88" height="60" viewBox="0 0 88 60" fill="none" xmlns="http://www.w3.org/2000/svg">
<rect x="0.5" y="0.5" width="87" height="59" rx="5.5" fill="#F6F8FA"/>
<path d="M6.75 16C6.75 10.8914 10.8914 6.75 16 6.75C21.1086 6.75 25.25 10.8914 25.25 16C25.25 21.1086 21.1086 25.25 16 25.25C10.8914 25.25 6.75 21.1086 6.75 16Z" stroke="#BFC7D7" stroke-width="1.5"/>
<path d="M6.75 44C6.75 38.8914 10.8914 34.75 16 34.75C21.1086 34.75 25.25 38.8914 25.25 44C25.25 49.1086 21.1086 53.25 16 53.25C10.8914 53.25 6.75 49.1086 6.75 44Z" stroke="#DCF7F4" stroke-width="1.5"/>
<path d="M34.75 44C34.75 38.8914 38.8914 34.75 44 34.75C49.1086 34.75 53.25 38.8914 53.25 44C53.25 49.1086 49.1086 53.25 44 53.25C38.8914 53.25 34.75 49.1086 34.75 44Z" fill="#DCF7F4" stroke="white" stroke-width="1.5"/>
<rect x="34" y="6" width="20" height="20" rx="10" fill="#27ACA1"/>
<rect x="62" y="6" width="20" height="20" rx="10" fill="#27ACA1"/>
<path fill-rule="evenodd" clip-rule="evenodd" d="M72 20C74.2092 20 76 18.2091 76 16C76 13.7909 74.2092 12 72 12C69.7909 12 68 13.7909 68 16C68 18.2091 69.7909 20 72 20Z" fill="white"/>
<rect x="62" y="34" width="20" height="20" rx="10" fill="white"/>
<path fill-rule="evenodd" clip-rule="evenodd" d="M72 48C74.2092 48 76 46.2091 76 44C76 41.7909 74.2092 40 72 40C69.7909 40 68 41.7909 68 44C68 46.2091 69.7909 48 72 48Z" fill="#27ACA1"/>
<rect x="0.5" y="0.5" width="87" height="59" rx="5.5" stroke="#BFC7D7" stroke-dasharray="10 5"/>
</svg>
