<svg width="24" height="24" viewBox="0 0 24 24" fill="none" xmlns="http://www.w3.org/2000/svg">
<path fill-rule="evenodd" clip-rule="evenodd" d="M20.4695 4.73438H16.4926V4.08984C16.4926 2.9375 15.5495 2 14.3902 2H10.6098C9.45053 2 8.5074 2.9375 8.5074 4.08984V4.73438H4.53051C4.23578 4.73438 4 4.96875 4 5.26172C4 5.55469 4.23578 5.78906 4.53051 5.78906H5.48937V18.1797C5.48937 19.7344 6.7626 21 8.32663 21H16.6734C18.2374 21 19.5106 19.7344 19.5106 18.1797V5.78906H20.4695C20.7642 5.78906 21 5.55469 21 5.26172C21 4.96875 20.7642 4.73438 20.4695 4.73438ZM9.56842 4.08984C9.56842 3.51953 10.0361 3.05469 10.6098 3.05469H14.3902C14.9639 3.05469 15.4316 3.51953 15.4316 4.08984V4.73438H9.56842V4.08984ZM16.6734 19.9453C17.6519 19.9453 18.4496 19.1523 18.4496 18.1797H18.4535V5.78906H6.55039V18.1797C6.55039 19.1523 7.34813 19.9453 8.32663 19.9453H16.6734Z" fill="#0C0C3D"/>
<path d="M12.5 17.6471C12.8148 17.6471 13.0667 17.4198 13.0667 17.1358V8.09951C13.0667 7.81547 12.8148 7.58824 12.5 7.58824C12.1852 7.58824 11.9333 7.81547 11.9333 8.09951V17.132C11.9333 17.416 12.1852 17.6471 12.5 17.6471Z" fill="#0C0C3D"/>
<path d="M9.1 17.6471C9.41481 17.6471 9.66667 17.4196 9.66667 17.1354V9.21756C9.66667 8.9333 9.41481 8.70588 9.1 8.70588C8.78519 8.70588 8.53333 8.9333 8.53333 9.21756V17.1354C8.53333 17.4196 8.78938 17.6471 9.1 17.6471Z" fill="#0C0C3D"/>
<path d="M15.9 17.6471C16.2148 17.6471 16.4667 17.4196 16.4667 17.1354V9.21756C16.4667 8.9333 16.2148 8.70588 15.9 8.70588C15.5852 8.70588 15.3333 8.9333 15.3333 9.21756V17.1354C15.3333 17.4196 15.5852 17.6471 15.9 17.6471Z" fill="#0C0C3D"/>
</svg>
