<svg width="20" height="20" viewBox="0 0 20 20" fill="none" xmlns="http://www.w3.org/2000/svg">
<path d="M9.70712 5.70709C10.0976 5.31656 10.0976 4.68339 9.70709 4.29288C9.31656 3.90236 8.68339 3.90238 8.29288 4.29291L9.70712 5.70709ZM4 10.0002L3.29288 9.29313C2.90237 9.68365 2.90237 10.3168 3.29288 10.7073L4 10.0002ZM8.29244 15.7071C8.68296 16.0976 9.31613 16.0976 9.70666 15.7071C10.0972 15.3166 10.0972 14.6834 9.70669 14.2929L8.29244 15.7071ZM8.29288 4.29291L3.29288 9.29313L4.70712 10.7073L9.70712 5.70709L8.29288 4.29291ZM3.29288 10.7073L8.29244 15.7071L9.70669 14.2929L4.70712 9.29313L3.29288 10.7073Z" fill="#0C0C3D"/>
<path d="M4 10H17" stroke="#0C0C3D" stroke-width="2" stroke-linecap="round"/>
</svg>
